<?xml version="1.0" encoding="UTF-8" standalone="no"?>
<!DOCTYPE svg PUBLIC "-//W3C//DTD SVG 1.1//EN" "http://www.w3.org/Graphics/SVG/1.1/DTD/svg11.dtd">
<svg width="100%" height="100%" viewBox="0 0 300 300" version="1.1" xmlns="http://www.w3.org/2000/svg" xmlns:xlink="http://www.w3.org/1999/xlink" xml:space="preserve" xmlns:serif="http://www.serif.com/" style="fill-rule:evenodd;clip-rule:evenodd;stroke-linejoin:round;stroke-miterlimit:1.41421;">
    <g>
        <g transform="matrix(1.13,0,0,1.13,0,0)">
            <rect x="0" y="0" width="100" height="100" style="fill:rgb(182,239,251);"/>
        </g>
        <g transform="matrix(1.38,0,0,1.42,0,100)">
            <rect x="0" y="0" width="100" height="100" style="fill:rgb(198,229,236);"/>
        </g>
        <g transform="matrix(1.33,0,0,1,0,200)">
            <rect x="0" y="0" width="100" height="100" style="fill:rgb(213,219,221);"/>
        </g>
        <g transform="matrix(1.21,0,0,1.21,100,0)">
            <rect x="0" y="0" width="100" height="100" style="fill:rgb(22,202,243);"/>
        </g>
        <g transform="matrix(1.3,0,0,1.33,100,100)">
            <rect x="0" y="0" width="100" height="100" style="fill:rgb(71,171,194);"/>
        </g>
        <g transform="matrix(1.13,0,0,1,100,200)">
            <rect x="0" y="0" width="100" height="100" style="fill:rgb(120,140,145);"/>
        </g>
        <g transform="matrix(1,0,0,1.3,200,0)">
            <rect x="0" y="0" width="100" height="100" style="fill:rgb(5,80,97);"/>
        </g>
        <g transform="matrix(1,0,0,1.42,200,100)">
            <rect x="0" y="0" width="100" height="100" style="fill:rgb(25,67,77);"/>
        </g>
        <g transform="matrix(1,0,0,1,200,200)">
            <rect x="0" y="0" width="100" height="100" style="fill:rgb(46,54,56);"/>
        </g>
    </g>
</svg>
